<?xml version="1.0" encoding="UTF-8"?><svg id="_Слой_1" xmlns="http://www.w3.org/2000/svg" viewBox="0 0 789.14 203.83"><path d="M136.62,104.4h10.71v77.14h-10.71V104.4ZM169.06,0h-10.71V77.14h10.71V0Zm76.59,131.6c-1.47,1.81-2.65,3.7-3.53,5.68-.82,1.84-1.39,3.51-1.77,5.03v-15.85h-10.7v55.07h10.7v-31.2c.61-1.73,1.45-3.49,2.54-5.28,1.54-2.54,3.68-4.69,6.4-6.46,2.72-1.77,6-2.65,9.82-2.65v-10.59c-3.09,0-5.74,.59-7.94,1.77-2.21,1.18-4.05,2.67-5.52,4.47Zm68.64-87.22c.55-1.92,1.36-3.72,2.48-5.38,1.73-2.54,3.97-4.56,6.73-6.07,2.76-1.51,5.79-2.26,9.1-2.26,4.34,0,7.54,1.07,9.6,3.2,2.06,2.13,3.09,5.41,3.09,9.82v33.44h10.7V41.38c0-3.31-.5-6.23-1.49-8.77-.99-2.54-2.39-4.67-4.19-6.4-1.8-1.73-3.96-3.03-6.46-3.92-2.5-.88-5.3-1.32-8.39-1.32s-5.78,.52-8.28,1.54c-2.5,1.03-4.71,2.48-6.62,4.36-1.91,1.88-3.48,4.05-4.69,6.51-.66,1.35-1.19,2.78-1.6,4.27v-15.58h-10.71v55.07h10.71V44.39ZM120.62,138.67c2.65,4.3,3.97,9.47,3.97,15.5s-1.32,11.07-3.97,15.34c-2.65,4.27-6.2,7.54-10.65,9.82s-9.4,3.42-14.84,3.42-10.43-1.14-14.95-3.42c-4.53-2.28-8.11-5.55-10.76-9.82-2.65-4.27-3.97-9.38-3.97-15.34s1.33-11.2,3.97-15.5c2.65-4.31,6.23-7.6,10.76-9.88,4.52-2.28,9.51-3.42,14.95-3.42s10.39,1.14,14.84,3.42c4.45,2.28,8,5.57,10.65,9.88Zm-6.84,15.5c0-4.19-.87-7.74-2.59-10.65-1.73-2.91-4.01-5.13-6.84-6.68-2.83-1.54-5.9-2.32-9.21-2.32s-6.51,.75-9.38,2.26c-2.87,1.51-5.19,3.72-6.95,6.62-1.77,2.91-2.65,6.49-2.65,10.76s.86,7.63,2.59,10.54c1.73,2.91,4.04,5.1,6.95,6.57,2.9,1.47,6.05,2.21,9.44,2.21s6.38-.73,9.21-2.21c2.83-1.47,5.11-3.66,6.84-6.57,1.73-2.9,2.59-6.42,2.59-10.54ZM63.07,64.5c-2.32-4.3-3.48-9.25-3.48-14.84s1.18-10.54,3.53-14.84c2.35-4.3,5.53-7.69,9.55-10.15,4.01-2.46,8.55-3.7,13.63-3.7,5.52,0,9.82,1.29,12.91,3.86,3.09,2.58,5.26,6.03,6.51,10.37,.25,.88,.46,1.79,.66,2.7v-15.84h10.7v55.07h-9.82c-.3-2.72-.52-5.04-.66-6.95-.15-1.91-.22-3.6-.22-5.08v-5.65c-.74,3.15-1.89,6.14-3.48,8.96-1.66,2.94-3.92,5.32-6.79,7.12s-6.48,2.7-10.81,2.7c-4.71,0-9.01-1.21-12.91-3.64-3.9-2.43-7.01-5.79-9.33-10.1Zm7.23-14.84c0,3.83,.77,7.19,2.32,10.1,1.55,2.91,3.68,5.17,6.4,6.79,2.72,1.62,5.81,2.43,9.27,2.43,3.97,0,7.3-.84,9.99-2.54,2.68-1.69,4.71-4.01,6.07-6.95,1.36-2.94,2.04-6.22,2.04-9.82,0-3.9-.7-7.3-2.1-10.21-1.4-2.9-3.44-5.17-6.12-6.79-2.69-1.62-5.98-2.43-9.88-2.43-5.67,0-10.08,1.82-13.24,5.46-3.16,3.64-4.75,8.3-4.75,13.96Zm72.06-27.59h-10.59v55.07h10.59V22.07ZM26.26,77.14h10.82V15.12h26.26V5.52H0V15.12H26.26v62.02Zm-5.9,59.65c2.91-1.51,6.05-2.26,9.44-2.26,4.19,0,7.87,1.14,11.04,3.42,3.16,2.28,5.37,5.45,6.62,9.49h9.82c-.59-4.63-2.12-8.59-4.58-11.86-2.47-3.27-5.67-5.79-9.6-7.56-3.94-1.77-8.37-2.65-13.3-2.65-5.45,0-10.43,1.14-14.95,3.42-4.52,2.28-8.13,5.57-10.81,9.88-2.69,4.3-4.03,9.47-4.03,15.5s1.34,11.09,4.03,15.39c2.69,4.3,6.29,7.58,10.81,9.82s9.51,3.37,14.95,3.37c4.93,0,9.38-.88,13.35-2.65,3.97-1.77,7.21-4.32,9.71-7.67,2.5-3.35,3.97-7.34,4.41-11.97h-9.71c-1.18,4.12-3.26,7.32-6.23,9.6-2.98,2.28-6.83,3.42-11.53,3.42-3.46,0-6.64-.73-9.54-2.21-2.91-1.47-5.23-3.66-6.95-6.57-1.73-2.9-2.59-6.42-2.59-10.54s.88-7.85,2.65-10.76c1.77-2.9,4.1-5.11,7.01-6.62ZM142.36,0h-10.59V9.09h10.59V0Zm72.39,138.67c2.65,4.3,3.97,9.47,3.97,15.5s-1.32,11.07-3.97,15.34c-2.65,4.27-6.2,7.54-10.65,9.82s-9.4,3.42-14.84,3.42-10.43-1.14-14.95-3.42c-4.53-2.28-8.11-5.55-10.76-9.82-2.65-4.27-3.97-9.38-3.97-15.34s1.33-11.2,3.97-15.5c2.65-4.31,6.23-7.6,10.76-9.88,4.52-2.28,9.51-3.42,14.95-3.42s10.39,1.14,14.84,3.42c4.45,2.28,8,5.57,10.65,9.88Zm-6.84,15.5c0-4.19-.87-7.74-2.59-10.65-1.73-2.91-4.01-5.13-6.84-6.68-2.83-1.54-5.9-2.32-9.21-2.32s-6.51,.75-9.38,2.26c-2.87,1.51-5.19,3.72-6.95,6.62-1.77,2.91-2.65,6.49-2.65,10.76s.86,7.63,2.59,10.54c1.73,2.91,4.04,5.1,6.95,6.57,2.9,1.47,6.05,2.21,9.44,2.21s6.38-.73,9.21-2.21c2.83-1.47,5.11-3.66,6.84-6.57,1.73-2.9,2.59-6.42,2.59-10.54Zm318.98-17.38c2.91-1.51,6.05-2.26,9.44-2.26,4.19,0,7.87,1.14,11.04,3.42,3.16,2.28,5.37,5.45,6.62,9.49h9.82c-.59-4.63-2.12-8.59-4.58-11.86-2.47-3.27-5.67-5.79-9.6-7.56-3.94-1.77-8.37-2.65-13.3-2.65-5.45,0-10.43,1.14-14.95,3.42-4.52,2.28-8.13,5.57-10.81,9.88-2.69,4.3-4.03,9.47-4.03,15.5s1.34,11.09,4.03,15.39c2.69,4.3,6.29,7.58,10.81,9.82s9.51,3.37,14.95,3.37c4.93,0,9.38-.88,13.35-2.65s7.21-4.32,9.71-7.67c2.5-3.35,3.97-7.34,4.41-11.97h-9.71c-1.18,4.12-3.26,7.32-6.23,9.6-2.98,2.28-6.83,3.42-11.53,3.42-3.46,0-6.64-.73-9.54-2.21-2.91-1.47-5.23-3.66-6.95-6.57-1.73-2.9-2.59-6.42-2.59-10.54s.88-7.85,2.65-10.76c1.77-2.9,4.1-5.11,7.01-6.62ZM242.18,63.68l-12.09-41.61h-12.69l-12.4,41.66-14.09-41.66h-11.7l20.53,55.07h10.04l13.9-42.29,13.8,42.29h9.93l20.86-55.07h-11.7l-14.4,41.61Zm380.61,66.82c-1.8-1.73-3.96-3.02-6.46-3.86-2.5-.85-5.3-1.27-8.39-1.27s-5.79,.52-8.33,1.54c-2.54,1.03-4.75,2.48-6.62,4.36s-3.42,4.05-4.64,6.51c-.66,1.35-1.19,2.76-1.6,4.23v-37.62h-10.7v77.14h10.7v-32.66c.54-1.9,1.33-3.68,2.43-5.3,1.69-2.5,3.9-4.51,6.62-6.02,2.72-1.51,5.67-2.26,8.83-2.26s5.5,.5,7.45,1.49c1.95,.99,3.38,2.45,4.3,4.36,.92,1.91,1.38,4.34,1.38,7.28v33.11h10.71v-36.31c0-3.16-.5-5.98-1.49-8.44-.99-2.46-2.39-4.56-4.19-6.29Zm20.36,51.04h10.59v-55.07h-10.59v55.07Zm135.85-46.74c-2.43-.82-4.6-1.65-6.54-2.48,1.48,.97,2.82,2.03,4,3.2,1.84,1.84,3.27,3.94,4.3,6.29,1.03,2.35,1.54,4.93,1.54,7.72,0,4.93-1.1,9.14-3.31,12.64-2.21,3.5-5.21,6.16-9,8-3.79,1.84-8.07,2.76-12.86,2.76-4.19,.22-7.38,.63-9.55,1.21-2.17,.59-3.25,1.84-3.25,3.75,0,1.1,.42,1.99,1.27,2.65s2.11,.99,3.81,.99h13.57c4.19,0,7.93,.53,11.2,1.6,3.27,1.07,5.87,2.87,7.78,5.41,1.91,2.54,2.87,6.02,2.87,10.43v4.86h-10.71v-2.54c0-3.75-1.03-6.44-3.09-8.06-2.06-1.62-5.08-2.43-9.05-2.43h-13.02c-2.72,0-5.06-.22-7.01-.66-1.95-.44-3.55-1.08-4.8-1.93-1.25-.85-2.17-1.88-2.76-3.09-.59-1.21-.88-2.56-.88-4.03,0-2.87,.88-5.02,2.65-6.46s4.03-2.37,6.79-2.81c1.63-.26,3.27-.36,4.92-.34-1.13-.37-2.24-.8-3.32-1.31-3.83-1.84-6.88-4.52-9.16-8.06-2.28-3.53-3.42-7.8-3.42-12.8s1.1-9.18,3.31-12.75c2.21-3.57,5.22-6.33,9.05-8.28,3.82-1.95,8.09-2.92,12.8-2.92,1.4,0,2.74,.09,4.03,.28,1.29,.18,2.56,.46,3.81,.83h24.17v9.93c-3.38,.07-6.77-.46-10.15-1.6Zm-7.28,14.62c0-3.16-.64-5.85-1.93-8.06s-3.03-3.9-5.24-5.08-4.67-1.77-7.39-1.77-5.1,.59-7.34,1.77c-2.25,1.18-4.03,2.85-5.35,5.02-1.32,2.17-1.99,4.87-1.99,8.11s.66,5.72,1.99,7.89c1.32,2.17,3.11,3.83,5.35,4.97,2.24,1.14,4.69,1.71,7.34,1.71s5.17-.57,7.34-1.71,3.92-2.79,5.24-4.97c1.32-2.17,1.99-4.8,1.99-7.89Zm-56.33-18.82c-1.81-1.73-3.96-3.03-6.46-3.92-2.5-.88-5.3-1.32-8.39-1.32s-5.78,.52-8.28,1.54c-2.5,1.03-4.71,2.48-6.62,4.36-1.91,1.88-3.48,4.05-4.69,6.51-.66,1.35-1.19,2.78-1.6,4.27v-15.58h-10.7v55.07h10.7v-32.75c.55-1.92,1.36-3.72,2.48-5.38,1.73-2.54,3.97-4.56,6.73-6.07,2.76-1.51,5.79-2.26,9.1-2.26,4.34,0,7.54,1.07,9.6,3.2,2.06,2.13,3.09,5.41,3.09,9.82v33.44h10.71v-35.76c0-3.31-.5-6.23-1.49-8.77s-2.39-4.67-4.19-6.4Zm-72.23-17.12h10.59v-9.09h-10.59v9.09ZM278.09,9.09h10.59V0h-10.59V9.09Zm0,68.05h10.59V22.07h-10.59v55.07Zm209.67,34.76h-10.71v14.57h-12.58v9.27h12.58v45.8h10.71v-45.8h12.58v-9.27h-12.58v-14.57Zm-107.37,18.71c-1.77-1.73-3.92-3.03-6.46-3.92-2.54-.88-5.35-1.32-8.44-1.32s-5.67,.52-8.17,1.54c-2.5,1.03-4.71,2.47-6.62,4.3-1.91,1.84-3.48,4.01-4.69,6.51-.43,.89-.79,1.82-1.12,2.75-.24-1.22-.56-2.39-.98-3.47-.99-2.54-2.39-4.67-4.19-6.4-1.81-1.73-3.96-3.03-6.46-3.92-2.5-.88-5.3-1.32-8.39-1.32s-5.78,.52-8.28,1.54c-2.5,1.03-4.71,2.48-6.62,4.36-1.91,1.88-3.48,4.05-4.69,6.51-.66,1.35-1.19,2.78-1.6,4.27v-15.58h-10.7v55.07h10.7v-32.75c.55-1.92,1.36-3.72,2.48-5.38,1.73-2.54,3.97-4.56,6.73-6.07,2.76-1.51,5.79-2.26,9.1-2.26,4.34,0,7.54,1.07,9.6,3.2,2.06,2.13,3.09,5.41,3.09,9.82v33.44h10.71v-35.6c.41-.87,.87-1.72,1.43-2.53,1.77-2.54,4.01-4.56,6.73-6.07,2.72-1.51,5.74-2.26,9.05-2.26,4.34,0,7.56,1.07,9.66,3.2,2.1,2.13,3.15,5.41,3.15,9.82v33.44h10.6v-35.76c0-3.31-.5-6.23-1.49-8.77s-2.37-4.67-4.14-6.4Zm63.45-4.14h10.71v55.07h-9.82c-.29-2.72-.52-5.04-.66-6.95-.15-1.91-.22-3.6-.22-5.08v-5.65c-.74,3.15-1.89,6.14-3.48,8.96-1.65,2.94-3.92,5.32-6.79,7.12-2.87,1.8-6.48,2.7-10.81,2.7-4.71,0-9.01-1.21-12.91-3.64s-7.01-5.79-9.32-10.1c-2.32-4.3-3.48-9.25-3.48-14.84s1.18-10.54,3.53-14.84,5.54-7.69,9.55-10.15c4.01-2.46,8.55-3.7,13.63-3.7,5.52,0,9.82,1.29,12.91,3.86,3.09,2.58,5.26,6.03,6.51,10.37,.25,.88,.46,1.79,.66,2.7v-15.83Zm0,27.59c0-3.9-.7-7.3-2.1-10.21-1.4-2.9-3.44-5.17-6.12-6.79-2.69-1.62-5.98-2.43-9.88-2.43-5.67,0-10.08,1.82-13.24,5.46-3.16,3.64-4.75,8.3-4.75,13.96,0,3.83,.77,7.19,2.32,10.1,1.54,2.91,3.68,5.17,6.4,6.79,2.72,1.62,5.81,2.43,9.27,2.43,3.97,0,7.3-.84,9.99-2.54,2.69-1.69,4.71-4.01,6.07-6.95s2.04-6.22,2.04-9.82Zm-40.39-78.52c-2.87,1.8-6.48,2.7-10.81,2.7-4.78,0-9.12-1.21-13.02-3.64-3.9-2.43-6.99-5.79-9.27-10.1-2.28-4.3-3.42-9.25-3.42-14.84s1.1-10.54,3.31-14.84,5.24-7.69,9.1-10.15c3.86-2.46,8.29-3.7,13.3-3.7,4.41,0,8.06,.74,10.92,2.21,2.87,1.47,5.13,3.53,6.79,6.18,1.54,2.47,2.65,5.31,3.37,8.48V0h10.71V77.14h-9.82c-.22-1.62-.42-3.62-.61-6.01s-.27-4.4-.27-6.02v-5.65c-.74,3.15-1.89,6.14-3.48,8.96-1.65,2.94-3.92,5.32-6.79,7.12Zm-7.84-6.57c3.97,0,7.3-.84,9.99-2.54,2.68-1.69,4.71-4.01,6.07-6.95s2.04-6.22,2.04-9.82c0-3.9-.7-7.3-2.1-10.21-1.4-2.9-3.44-5.17-6.12-6.79s-5.98-2.43-9.88-2.43c-5.67,0-10.08,1.82-13.24,5.46-3.16,3.64-4.75,8.3-4.75,13.96,0,3.83,.77,7.19,2.32,10.1,1.54,2.91,3.68,5.17,6.4,6.79s5.81,2.43,9.27,2.43Z"/></svg>