<?xml version="1.0" encoding="UTF-8"?><svg id="_Слой_1" xmlns="http://www.w3.org/2000/svg" viewBox="0 0 794.54 54.06"><g><polygon points="148.95 8.22 148.95 3 114.51 3 114.51 8.22 128.79 8.22 128.79 41.94 134.67 41.94 134.67 8.22 148.95 8.22"/><path d="M172.35,20.61c-.11-.5-.22-.99-.36-1.47-.68-2.36-1.86-4.24-3.54-5.64-1.68-1.4-4.02-2.1-7.02-2.1-2.76,0-5.23,.67-7.41,2.01-2.18,1.34-3.91,3.18-5.19,5.52-1.28,2.34-1.92,5.03-1.92,8.07s.63,5.73,1.89,8.07c1.26,2.34,2.95,4.17,5.07,5.49,2.12,1.32,4.46,1.98,7.02,1.98,2.36,0,4.32-.49,5.88-1.47s2.79-2.27,3.69-3.87c.86-1.53,1.49-3.16,1.89-4.87v3.07c0,.8,.04,1.72,.12,2.76,.08,1.04,.2,2.3,.36,3.78h5.34V12h-5.82v8.61Zm-1.11,11.73c-.74,1.6-1.84,2.86-3.3,3.78-1.46,.92-3.27,1.38-5.43,1.38-1.88,0-3.56-.44-5.04-1.32-1.48-.88-2.64-2.11-3.48-3.69-.84-1.58-1.26-3.41-1.26-5.49,0-3.08,.86-5.61,2.58-7.59,1.72-1.98,4.12-2.97,7.2-2.97,2.12,0,3.91,.44,5.37,1.32,1.46,.88,2.57,2.11,3.33,3.69,.76,1.58,1.14,3.43,1.14,5.55,0,1.96-.37,3.74-1.11,5.34Z"/><rect x="186.15" y="12" width="5.76" height="29.94"/><rect x="186.15" width="5.76" height="4.94"/><rect x="200.61" width="5.82" height="41.94"/><polygon points="246.18 34.62 239.61 12 232.7 12 225.96 34.65 218.31 12 211.95 12 223.11 41.94 228.57 41.94 236.12 18.95 243.62 41.94 249.03 41.94 260.37 12 254.01 12 246.18 34.62"/><rect x="265.7" y="12" width="5.76" height="29.94"/><rect x="265.7" width="5.76" height="4.94"/><path d="M304.97,14.25c-.98-.94-2.15-1.65-3.51-2.13-1.36-.48-2.88-.72-4.56-.72s-3.14,.28-4.5,.84c-1.36,.56-2.56,1.35-3.6,2.37-1.04,1.02-1.89,2.2-2.55,3.54-.36,.73-.65,1.51-.87,2.32V12h-5.82v29.94h5.82V24.13c.3-1.04,.74-2.02,1.35-2.92,.94-1.38,2.16-2.48,3.66-3.3,1.5-.82,3.15-1.23,4.95-1.23,2.36,0,4.1,.58,5.22,1.74,1.12,1.16,1.68,2.94,1.68,5.34v18.18h5.82V22.5c0-1.8-.27-3.39-.81-4.77-.54-1.38-1.3-2.54-2.28-3.48Z"/><path d="M339.44,20.57c-.39-1.73-.99-3.27-1.83-4.61-.9-1.44-2.13-2.56-3.69-3.36-1.56-.8-3.54-1.2-5.94-1.2-2.72,0-5.13,.67-7.23,2.01-2.1,1.34-3.75,3.18-4.95,5.52s-1.8,5.03-1.8,8.07,.62,5.73,1.86,8.07c1.24,2.34,2.92,4.17,5.04,5.49,2.12,1.32,4.48,1.98,7.08,1.98,2.36,0,4.32-.49,5.88-1.47,1.56-.98,2.79-2.27,3.69-3.87,.86-1.53,1.49-3.16,1.89-4.87v3.07c0,.88,.05,1.97,.15,3.27s.21,2.39,.33,3.27h5.34V0h-5.82V20.57Zm-1.11,11.77c-.74,1.6-1.84,2.86-3.3,3.78-1.46,.92-3.27,1.38-5.43,1.38-1.88,0-3.56-.44-5.04-1.32s-2.64-2.11-3.48-3.69c-.84-1.58-1.26-3.41-1.26-5.49,0-3.08,.86-5.61,2.58-7.59,1.72-1.98,4.12-2.97,7.2-2.97,2.12,0,3.91,.44,5.37,1.32s2.57,2.11,3.33,3.69c.76,1.58,1.14,3.43,1.14,5.55,0,1.96-.37,3.74-1.11,5.34Z"/><path d="M376.55,17.61c1.58-.82,3.29-1.23,5.13-1.23,2.28,0,4.28,.62,6,1.86,1.72,1.24,2.92,2.96,3.6,5.16h5.34c-.32-2.52-1.15-4.67-2.49-6.45-1.34-1.78-3.08-3.15-5.22-4.11-2.14-.96-4.55-1.44-7.23-1.44-2.96,0-5.67,.62-8.13,1.86-2.46,1.24-4.42,3.03-5.88,5.37-1.46,2.34-2.19,5.15-2.19,8.43s.73,6.03,2.19,8.37c1.46,2.34,3.42,4.12,5.88,5.34s5.17,1.83,8.13,1.83c2.68,0,5.1-.48,7.26-1.44s3.92-2.35,5.28-4.17c1.36-1.82,2.16-3.99,2.4-6.51h-5.28c-.64,2.24-1.77,3.98-3.39,5.22-1.62,1.24-3.71,1.86-6.27,1.86-1.88,0-3.61-.4-5.19-1.2-1.58-.8-2.84-1.99-3.78-3.57-.94-1.58-1.41-3.49-1.41-5.73s.48-4.27,1.44-5.85c.96-1.58,2.23-2.78,3.81-3.6Z"/><path d="M425.27,13.26c-2.42-1.24-5.11-1.86-8.07-1.86s-5.67,.62-8.13,1.86c-2.46,1.24-4.41,3.03-5.85,5.37-1.44,2.34-2.16,5.15-2.16,8.43s.72,6.02,2.16,8.34c1.44,2.32,3.39,4.1,5.85,5.34,2.46,1.24,5.17,1.86,8.13,1.86s5.65-.62,8.07-1.86,4.35-3.02,5.79-5.34c1.44-2.32,2.16-5.1,2.16-8.34s-.72-6.09-2.16-8.43c-1.44-2.34-3.37-4.13-5.79-5.37Zm.66,19.53c-.94,1.58-2.18,2.77-3.72,3.57-1.54,.8-3.21,1.2-5.01,1.2s-3.55-.4-5.13-1.2c-1.58-.8-2.84-1.99-3.78-3.57-.94-1.58-1.41-3.49-1.41-5.73s.48-4.27,1.44-5.85c.96-1.58,2.22-2.78,3.78-3.6,1.56-.82,3.26-1.23,5.1-1.23s3.47,.42,5.01,1.26c1.54,.84,2.78,2.05,3.72,3.63,.94,1.58,1.41,3.51,1.41,5.79s-.47,4.15-1.41,5.73Z"/><rect x="439.76" width="5.82" height="41.94"/><path d="M476.45,13.26c-2.42-1.24-5.11-1.86-8.07-1.86s-5.67,.62-8.13,1.86c-2.46,1.24-4.41,3.03-5.85,5.37-1.44,2.34-2.16,5.15-2.16,8.43s.72,6.02,2.16,8.34c1.44,2.32,3.39,4.1,5.85,5.34,2.46,1.24,5.17,1.86,8.13,1.86s5.65-.62,8.07-1.86,4.35-3.02,5.79-5.34c1.44-2.32,2.16-5.1,2.16-8.34s-.72-6.09-2.16-8.43c-1.44-2.34-3.37-4.13-5.79-5.37Zm.66,19.53c-.94,1.58-2.18,2.77-3.72,3.57-1.54,.8-3.21,1.2-5.01,1.2s-3.55-.4-5.13-1.2c-1.58-.8-2.84-1.99-3.78-3.57-.94-1.58-1.41-3.49-1.41-5.73s.48-4.27,1.44-5.85c.96-1.58,2.22-2.78,3.78-3.6,1.56-.82,3.26-1.23,5.1-1.23s3.47,.42,5.01,1.26c1.54,.84,2.78,2.05,3.72,3.63,.94,1.58,1.41,3.51,1.41,5.79s-.47,4.15-1.41,5.73Z"/><path d="M499.04,14.79c-.8,.98-1.44,2.01-1.92,3.09-.44,1-.76,1.91-.96,2.73V12h-5.82v29.94h5.82V24.98c.33-.94,.79-1.9,1.38-2.87,.84-1.38,2-2.55,3.48-3.51,1.48-.96,3.26-1.44,5.34-1.44v-5.76c-1.68,0-3.12,.32-4.32,.96-1.2,.64-2.2,1.45-3,2.43Z"/><path d="M572.3,14.25c-.96-.94-2.13-1.65-3.51-2.13-1.38-.48-2.91-.72-4.59-.72s-3.08,.28-4.44,.84c-1.36,.56-2.56,1.34-3.6,2.34-1.04,1-1.89,2.18-2.55,3.54-.24,.48-.43,.99-.61,1.5-.13-.66-.3-1.3-.53-1.89-.54-1.38-1.3-2.54-2.28-3.48-.98-.94-2.15-1.65-3.51-2.13-1.36-.48-2.88-.72-4.56-.72s-3.14,.28-4.5,.84c-1.36,.56-2.56,1.35-3.6,2.37-1.04,1.02-1.89,2.2-2.55,3.54-.36,.73-.65,1.51-.87,2.32V12h-5.82v29.94h5.82V24.13c.3-1.04,.74-2.02,1.35-2.92,.94-1.38,2.16-2.48,3.66-3.3,1.5-.82,3.15-1.23,4.95-1.23,2.36,0,4.1,.58,5.22,1.74,1.12,1.16,1.68,2.94,1.68,5.34v18.18h5.82V22.58c.22-.47,.47-.94,.78-1.37,.96-1.38,2.18-2.48,3.66-3.3,1.48-.82,3.12-1.23,4.92-1.23,2.36,0,4.11,.58,5.25,1.74,1.14,1.16,1.71,2.94,1.71,5.34v18.18h5.76V22.5c0-1.8-.27-3.39-.81-4.77s-1.29-2.54-2.25-3.48Z"/><path d="M606.8,20.61c-.11-.5-.22-.99-.36-1.47-.68-2.36-1.86-4.24-3.54-5.64-1.68-1.4-4.02-2.1-7.02-2.1-2.76,0-5.23,.67-7.41,2.01-2.18,1.34-3.91,3.18-5.19,5.52s-1.92,5.03-1.92,8.07,.63,5.73,1.89,8.07c1.26,2.34,2.95,4.17,5.07,5.49s4.46,1.98,7.02,1.98c2.36,0,4.32-.49,5.88-1.47,1.56-.98,2.79-2.27,3.69-3.87,.86-1.53,1.49-3.16,1.89-4.87v3.07c0,.8,.04,1.72,.12,2.76,.08,1.04,.2,2.3,.36,3.78h5.34V12h-5.82v8.61Zm-1.11,11.73c-.74,1.6-1.84,2.86-3.3,3.78-1.46,.92-3.27,1.38-5.43,1.38-1.88,0-3.56-.44-5.04-1.32-1.48-.88-2.64-2.11-3.48-3.69-.84-1.58-1.26-3.41-1.26-5.49,0-3.08,.86-5.61,2.58-7.59,1.72-1.98,4.12-2.97,7.2-2.97,2.12,0,3.91,.44,5.37,1.32,1.46,.88,2.57,2.11,3.33,3.69,.76,1.58,1.14,3.43,1.14,5.55,0,1.96-.37,3.74-1.11,5.34Z"/><polygon points="630.68 4.08 624.86 4.08 624.86 12 618.02 12 618.02 17.04 624.86 17.04 624.86 41.94 630.68 41.94 630.68 17.04 637.52 17.04 637.52 12 630.68 12 630.68 4.08"/><path d="M651.95,17.61c1.58-.82,3.29-1.23,5.13-1.23,2.28,0,4.28,.62,6,1.86,1.72,1.24,2.92,2.96,3.6,5.16h5.34c-.32-2.52-1.15-4.67-2.49-6.45-1.34-1.78-3.08-3.15-5.22-4.11-2.14-.96-4.55-1.44-7.23-1.44-2.96,0-5.67,.62-8.13,1.86-2.46,1.24-4.42,3.03-5.88,5.37-1.46,2.34-2.19,5.15-2.19,8.43s.73,6.03,2.19,8.37c1.46,2.34,3.42,4.12,5.88,5.34s5.17,1.83,8.13,1.83c2.68,0,5.1-.48,7.26-1.44s3.92-2.35,5.28-4.17c1.36-1.82,2.16-3.99,2.4-6.51h-5.28c-.64,2.24-1.77,3.98-3.39,5.22-1.62,1.24-3.71,1.86-6.27,1.86-1.88,0-3.61-.4-5.19-1.2-1.58-.8-2.84-1.99-3.78-3.57-.94-1.58-1.41-3.49-1.41-5.73s.48-4.27,1.44-5.85c.96-1.58,2.23-2.78,3.81-3.6Z"/><path d="M704.09,14.19c-.98-.94-2.15-1.64-3.51-2.1-1.36-.46-2.88-.69-4.56-.69s-3.15,.28-4.53,.84c-1.38,.56-2.58,1.35-3.6,2.37s-1.86,2.2-2.52,3.54c-.36,.73-.65,1.5-.87,2.3V0h-5.82V41.94h5.82V24.18c.29-1.03,.72-2,1.32-2.88,.92-1.36,2.12-2.45,3.6-3.27,1.48-.82,3.08-1.23,4.8-1.23s2.99,.27,4.05,.81c1.06,.54,1.84,1.33,2.34,2.37,.5,1.04,.75,2.36,.75,3.96v18h5.82V22.2c0-1.72-.27-3.25-.81-4.59-.54-1.34-1.3-2.48-2.28-3.42Z"/><rect x="715.16" y="12" width="5.76" height="29.94"/><rect x="715.16" width="5.76" height="4.94"/><path d="M754.43,14.25c-.98-.94-2.15-1.65-3.51-2.13-1.36-.48-2.88-.72-4.56-.72s-3.14,.28-4.5,.84c-1.36,.56-2.56,1.35-3.6,2.37-1.04,1.02-1.89,2.2-2.55,3.54-.36,.73-.65,1.51-.87,2.32V12h-5.82v29.94h5.82V24.13c.3-1.04,.74-2.02,1.35-2.92,.94-1.38,2.16-2.48,3.66-3.3,1.5-.82,3.15-1.23,4.95-1.23,2.36,0,4.1,.58,5.22,1.74,1.12,1.16,1.68,2.94,1.68,5.34v18.18h5.82V22.5c0-1.8-.27-3.39-.81-4.77s-1.3-2.54-2.28-3.48Z"/><path d="M794.54,17.4v-5.4h-13.14c-.68-.2-1.37-.35-2.07-.45-.7-.1-1.43-.15-2.19-.15-2.56,0-4.88,.53-6.96,1.59-2.08,1.06-3.72,2.56-4.92,4.5-1.2,1.94-1.8,4.25-1.8,6.93s.62,5.04,1.86,6.96c1.24,1.92,2.9,3.38,4.98,4.38,.58,.28,1.19,.51,1.81,.71-.89-.01-1.79,.04-2.67,.18-1.5,.24-2.73,.75-3.69,1.53s-1.44,1.95-1.44,3.51c0,.8,.16,1.53,.48,2.19,.32,.66,.82,1.22,1.5,1.68,.68,.46,1.55,.81,2.61,1.05,1.06,.24,2.33,.36,3.81,.36h7.08c2.16,0,3.8,.44,4.92,1.32,1.12,.88,1.68,2.34,1.68,4.38v1.38h5.82v-2.64c0-2.4-.52-4.29-1.56-5.67-1.04-1.38-2.45-2.36-4.23-2.94-1.78-.58-3.81-.87-6.09-.87h-7.38c-.92,0-1.61-.18-2.07-.54s-.69-.84-.69-1.44c0-1.04,.59-1.72,1.77-2.04,1.18-.32,2.91-.54,5.19-.66,2.6,0,4.93-.5,6.99-1.5,2.06-1,3.69-2.45,4.89-4.35,1.2-1.9,1.8-4.19,1.8-6.87,0-1.52-.28-2.92-.84-4.2-.56-1.28-1.34-2.42-2.34-3.42-.64-.64-1.37-1.22-2.17-1.74,1.05,.46,2.23,.91,3.55,1.35,1.84,.62,3.68,.91,5.52,.87Zm-10.56,11.37c-.72,1.18-1.67,2.08-2.85,2.7s-2.51,.93-3.99,.93-2.77-.31-3.99-.93c-1.22-.62-2.19-1.52-2.91-2.7-.72-1.18-1.08-2.61-1.08-4.29s.36-3.23,1.08-4.41c.72-1.18,1.69-2.09,2.91-2.73,1.22-.64,2.55-.96,3.99-.96s2.82,.32,4.02,.96,2.15,1.56,2.85,2.76,1.05,2.66,1.05,4.38-.36,3.11-1.08,4.29Z"/></g><g><g><path d="M82.22,9.93c-1.38,1.03-2.44,1.57-3.32,1.94-2.31,.95-4.28,1.03-4.77,1.04-2.42,.06-4.24-.6-6.05-1.25-1.05-.38-1.89-.76-2.46-1.04-5.72-.4-13.43-.13-21.88,2.64-2.31,.76-4.43,1.63-6.35,2.54,1.94-.96,3.6-1.16,4.58-1.19,1.24-.05,2.27,.13,2.96,.25,1.08,.19,2.14,.48,3.19,.87,1.98,.75,4.62,2.12,7.93,4.12,3.17,2,6.14,3.51,8.92,4.54,2.78,1.03,5.75,1.55,8.92,1.55,6.25,0,11.63-3.43,16.12-10.29V1.61c-1.24,1.73-4.19,5.63-7.8,8.32Z"/><path d="M60.49,7.78c-4.58-2.63-6.88-3.91-9.61-4.87-2.49-.87-5.23-1.31-8.23-1.31-6.34,0-11.71,3.4-16.12,10.2v14.13c2.07-2.93,4.3-5.38,6.68-7.34,.06-.05,.12-.09,.18-.14,0,0,.18-.14,.49-.37,.14-.12,.28-.23,.41-.33,1.05-.78,2.06-1.42,3.05-1.91,.02,0,.03-.02,.05-.02t.01,0c.48-.2,1.39-.58,2.56-.95,12.31-3.84,20.45,3.59,31.76,.45,1.6-.44,4.19-1.35,7.18-3.44-.66,.28-1.55,.59-2.63,.8-1.43,.27-2.54,.25-2.78,.24-1.66-.06-3.77-.53-7.63-2.18-.11-.05-.25,0-5.38-2.93Z"/></g><g><path d="M55.7,36.45c-1.38,1.03-2.44,1.57-3.32,1.94-2.31,.95-4.28,1.03-4.77,1.04-2.42,.06-4.24-.6-6.05-1.25-1.05-.38-1.89-.76-2.46-1.04-5.72-.4-13.43-.13-21.88,2.64-2.31,.76-4.43,1.63-6.35,2.54,1.94-.96,3.6-1.16,4.58-1.19,1.24-.05,2.27,.13,2.96,.25,1.08,.19,2.14,.48,3.19,.87,1.98,.75,4.62,2.12,7.93,4.12,3.17,2,6.14,3.51,8.92,4.54,2.78,1.03,5.75,1.55,8.92,1.55,6.25,0,11.63-3.43,16.12-10.29v-14.03c-1.24,1.73-4.19,5.63-7.8,8.32Z"/><path d="M33.96,34.31c-4.58-2.63-6.88-3.91-9.61-4.87-2.49-.87-5.23-1.31-8.23-1.31-6.34,0-11.71,3.4-16.12,10.2v14.13c2.07-2.93,4.3-5.38,6.68-7.34,.06-.05,.12-.09,.18-.14,0,0,.18-.14,.49-.37,.14-.12,.28-.23,.41-.33,1.05-.78,2.06-1.42,3.05-1.91,.02,0,.03-.02,.05-.02t.01,0c.48-.2,1.39-.58,2.56-.95,12.31-3.84,20.45,3.59,31.76,.45,1.6-.44,4.19-1.35,7.18-3.44-.66,.28-1.55,.59-2.63,.8-1.43,.27-2.54,.25-2.78,.24-1.66-.06-3.77-.53-7.63-2.18-.11-.05-.25,0-5.38-2.93Z"/></g></g></svg>