<?xml version="1.0" encoding="UTF-8"?><svg id="_Слой_1" xmlns="http://www.w3.org/2000/svg" viewBox="0 0 720.57 407.03"><defs><style>.cls-1{fill:#fff;}</style></defs><g><path class="cls-1" d="M658.15,66.64c-11.06,8.27-19.51,12.6-26.54,15.5-18.52,7.64-34.26,8.26-38.19,8.35-19.33,.47-33.94-4.77-48.42-9.98-8.41-3.02-15.14-6.12-19.65-8.35-45.8-3.19-107.5-1.07-175.11,21.17-18.52,6.09-35.48,13.03-50.87,20.31,15.55-7.66,28.85-9.26,36.69-9.56,9.93-.38,18.13,1.06,23.69,2.02,8.65,1.5,17.16,3.82,25.53,6.99,15.85,6,37,17,63.44,32.94,25.38,16,49.18,28.07,71.39,36.32,22.25,8.25,46.05,12.38,71.43,12.38,50.06,0,93.06-27.44,129.04-82.39V0c-9.92,13.82-33.55,45.05-62.42,66.64Z"/><path class="cls-1" d="M484.17,49.45c-36.68-21.06-55.07-31.27-76.95-38.94C387.26,3.5,365.32,0,341.35,0c-50.77,0-93.77,27.19-129.04,81.64v113.08c16.56-23.44,34.39-43.07,53.51-58.76,.44-.38,.93-.75,1.41-1.13,0,0,1.46-1.13,3.93-3,1.1-.94,2.21-1.81,3.31-2.63,8.39-6.25,16.51-11.38,24.41-15.32,.13-.06,.26-.13,.4-.19t.09-.06c3.8-1.63,11.12-4.64,20.53-7.58,98.52-30.72,163.67,28.7,254.21,3.61,12.78-3.54,33.56-10.85,57.51-27.54-5.32,2.23-12.44,4.71-21.08,6.37-11.44,2.2-20.32,1.97-22.23,1.9-13.31-.44-30.15-4.27-61.09-17.49-.88-.38-2.02,.08-43.05-23.48Z"/></g><g><path class="cls-1" d="M445.84,278.95c-11.06,8.27-19.51,12.6-26.54,15.5-18.52,7.64-34.26,8.26-38.19,8.35-19.33,.47-33.94-4.77-48.42-9.98-8.41-3.02-15.14-6.12-19.65-8.35-45.8-3.19-107.5-1.07-175.11,21.17-18.52,6.09-35.48,13.03-50.87,20.31,15.55-7.66,28.85-9.26,36.69-9.56,9.93-.38,18.13,1.06,23.69,2.02,8.65,1.5,17.16,3.82,25.53,6.99,15.85,6,37,17,63.44,32.94,25.38,16,49.18,28.07,71.39,36.32,22.25,8.25,46.05,12.38,71.43,12.38,50.06,0,93.06-27.44,129.04-82.39v-112.33c-9.92,13.82-33.55,45.05-62.42,66.64Z"/><path class="cls-1" d="M271.86,261.75c-36.68-21.06-55.07-31.27-76.95-38.94-19.95-7-41.9-10.5-65.87-10.5-50.77,0-93.77,27.19-129.04,81.64v113.08c16.56-23.44,34.39-43.07,53.51-58.76,.44-.38,.93-.75,1.41-1.13,0,0,1.46-1.13,3.93-3,1.1-.94,2.21-1.81,3.31-2.63,8.39-6.25,16.51-11.38,24.41-15.32,.13-.06,.26-.13,.4-.19t.09-.06c3.8-1.63,11.12-4.64,20.53-7.58,98.52-30.72,163.67,28.7,254.21,3.61,12.78-3.54,33.56-10.85,57.51-27.54-5.32,2.23-12.44,4.71-21.08,6.37-11.44,2.2-20.32,1.97-22.23,1.9-13.31-.44-30.15-4.27-61.09-17.49-.88-.38-2.02,.08-43.05-23.48Z"/></g></svg>